<svg width="449" height="102" viewBox="0 0 449 102" fill="none" xmlns="http://www.w3.org/2000/svg">
<g clip-path="url(#clip0_151_43)">
<path d="M0 87.4233V43.7116H14.4603V58.2883H57.8228V43.7116H14.4603V29.1349H57.8228V43.7116H72.2648V72.8466H14.4603V87.4233H72.2648V102H14.4603V87.4233H0Z" fill="white"/>
<path d="M101.551 0H87.0908V102H101.551V0Z" fill="white"/>
<path d="M115.81 87.4233V43.7116H130.271V58.2883H173.633V43.7116H130.271V29.1349H173.633V43.7116H188.093V72.8466H130.271V87.4233H188.093V102H130.271V87.4233H115.81Z" fill="white"/>
<path d="M246.263 102H231.821V87.4233H217.361V58.2883H202.919V29.1349H217.379V58.2883H231.84V87.4233H246.282L246.263 102ZM260.724 87.4233H246.282V58.2883H260.724V87.4233ZM275.184 58.2883H260.724V29.1534H275.184V58.2883Z" fill="white"/>
<path d="M289.626 87.4233V43.7116H304.086V58.2883H347.449V43.7116H304.086V29.1349H347.449V43.7116H361.909V72.8466H304.086V87.4233H361.909V102H304.086V87.4233H289.626Z" fill="white"/>
<path d="M449 102H434.54V43.7116H391.177V102H376.717V29.1349H434.54V43.7116H449V102Z" fill="white"/>
</g>
<defs>
<clipPath id="clip0_151_43">
<rect width="449" height="102" fill="white"/>
</clipPath>
</defs>
</svg>
