<svg width="336" height="55" viewBox="0 0 336 55" fill="none" xmlns="http://www.w3.org/2000/svg">
<g clip-path="url(#clip0_139_116)">
<path d="M0 46.9103V23.455H7.75925V31.2767H31.0272V23.455H7.75925V15.6333H31.0272V23.455H38.7766V39.0886H7.75925V46.9103H38.7766V54.732H7.75925V46.9103H0Z" fill="white"/>
<path d="M54.4913 0H46.7321V54.7322H54.4913V0Z" fill="white"/>
<path d="M62.1427 46.9103V23.455H69.902V31.2767H93.1699V23.455H69.902V15.6333H93.1699V23.455H100.929V39.0886H69.902V46.9103H100.929V54.732H69.902V46.9103H62.1427Z" fill="white"/>
<path d="M132.143 54.732H124.393V46.9103H116.634V31.2767H108.885V15.6333H116.644V31.2767H124.403V46.9103H132.152L132.143 54.732ZM139.902 46.9103H132.152V31.2767H139.902V46.9103ZM147.661 31.2767H139.902V15.6432H147.661V31.2767Z" fill="white"/>
<path d="M155.411 46.9103V23.455H163.17V31.2767H186.438V23.455H163.17V15.6333H186.438V23.455H194.197V39.0886H163.17V46.9103H194.197V54.732H163.17V46.9103H155.411Z" fill="white"/>
<path d="M240.929 54.732H233.17V23.455H209.902V54.732H202.143V15.6333H233.17V23.455H240.929V54.732Z" fill="white"/>
</g>
<path d="M284.334 14.0052C285.082 14.0052 285.731 14.2216 286.282 14.6545C286.872 15.0873 287.266 15.6579 287.462 16.3662L299.267 54.7324H290.059L281.737 24.8068C281.58 24.1378 281.422 23.4689 281.265 22.7999C281.107 22.0916 280.97 21.4227 280.852 20.7931H279.258C279.14 21.4227 279.002 22.0916 278.845 22.7999C278.727 23.4689 278.569 24.1378 278.373 24.8068L270.05 54.7324H260.783L272.647 16.3662C272.844 15.6579 273.218 15.0873 273.769 14.6545C274.359 14.2216 275.028 14.0052 275.775 14.0052H284.334ZM290.591 37.202V43.9899H269.46V37.202H290.591ZM334.516 14.0052L323.42 52.2534C323.223 52.9617 322.829 53.5519 322.239 54.0241C321.688 54.4963 321.019 54.7324 320.232 54.7324H311.969C311.142 54.7324 310.434 54.4963 309.844 54.0241C309.293 53.5519 308.939 52.9617 308.781 52.2534L297.626 14.0052H306.952L314.389 43.3996C314.546 44.1473 314.704 44.9146 314.861 45.7016C315.058 46.4493 315.215 47.1969 315.333 47.9445H316.868C316.986 47.1969 317.124 46.4296 317.281 45.6426C317.478 44.8556 317.675 44.0883 317.871 43.3406L325.249 14.0052H334.516Z" fill="white"/>
<defs>
<clipPath id="clip0_139_116">
<rect width="240.929" height="54.7322" fill="white"/>
</clipPath>
</defs>
</svg>
