<svg width="110" height="83" viewBox="0 0 110 83" fill="none" xmlns="http://www.w3.org/2000/svg">
<path d="M30.5599 10.155C30.2011 9.79384 29.7736 9.50594 29.3019 9.30779C28.8302 9.10963 28.3236 9.00511 27.811 9.00018C27.2983 8.99526 26.7897 9.09003 26.3142 9.27909C25.8388 9.46814 25.4057 9.74778 25.0398 10.102C20.9008 14.1615 17.6175 18.9893 15.3795 24.3069C13.1414 29.6244 11.9928 35.3266 12 41.0843C11.9933 47.063 13.2323 52.9792 15.64 58.4657C18.0477 63.9523 21.5728 68.8921 25.9965 72.9786C26.7411 73.6576 27.7245 74.0236 28.7382 73.9988C29.7518 73.9741 30.7157 73.5606 31.4253 72.8461C33.1238 71.1705 32.9141 68.5034 31.2801 66.9604C27.73 63.6226 24.9048 59.6076 22.9764 55.1593C21.048 50.711 20.0566 45.9223 20.0625 41.0843C20.0625 31.296 24.0454 22.4196 30.5061 15.9612C32.0649 14.397 32.2261 11.7988 30.5599 10.155ZM40.0253 19.5033C39.3174 18.7847 38.3496 18.3723 37.334 18.3564C36.3185 18.3405 35.3379 18.7224 34.6073 19.4184C31.6991 22.2497 29.3908 25.6233 27.8165 29.3428C26.2423 33.0623 25.4336 37.0536 25.4375 41.0843C25.4312 45.3462 26.3339 49.5617 28.0868 53.457C29.8398 57.3523 32.4038 60.8401 35.6124 63.694C36.3501 64.337 37.3103 64.6753 38.294 64.6388C39.2777 64.6022 40.2094 64.1937 40.896 63.4978C42.659 61.7586 42.3311 59.0226 40.6756 57.4849C38.4064 55.3805 36.5987 52.8393 35.3645 50.0184C34.1303 47.1974 33.4957 44.1568 33.5 41.0843C33.5 34.9865 35.9564 29.4507 39.95 25.389C41.4873 23.8301 41.7399 21.1895 40.0253 19.5033ZM69.9748 19.5033C70.6826 18.7847 71.6504 18.3723 72.666 18.3564C73.6816 18.3405 74.6621 18.7224 75.3927 19.4184C78.3009 22.2497 80.6092 25.6233 82.1835 29.3428C83.7577 33.0623 84.5664 37.0536 84.5625 41.0843C84.5688 45.3462 83.6662 49.5617 81.9132 53.457C80.1602 57.3523 77.5962 60.8401 74.3876 63.694C73.6499 64.337 72.6897 64.6753 71.706 64.6388C70.7223 64.6022 69.7906 64.1937 69.104 63.4978C67.341 61.7586 67.6689 59.0226 69.3244 57.4849C71.5937 55.3805 73.4013 52.8393 74.6355 50.0184C75.8697 47.1974 76.5043 44.1568 76.5 41.0843C76.5 34.9865 74.0436 29.4507 70.05 25.389C68.5128 23.8301 68.2601 21.1895 69.9748 19.5033ZM79.4401 10.1603C79.799 9.79915 80.2264 9.51124 80.6981 9.31309C81.1698 9.11494 81.6764 9.01041 82.189 9.00549C82.7017 9.00056 83.2103 9.09533 83.6858 9.28439C84.1613 9.47345 84.5943 9.75308 84.9602 10.1073C89.0986 14.1661 92.3815 18.9931 94.6195 24.3097C96.8576 29.6263 98.0065 35.3275 98 41.0843C98.0067 47.063 96.7677 52.9792 94.36 58.4657C91.9523 63.9523 88.4272 68.8921 84.0035 72.9786C83.259 73.6576 82.2755 74.0236 81.2619 73.9988C80.2482 73.9741 79.2843 73.5606 78.5747 72.8461C76.8762 71.1705 77.0859 68.5034 78.7252 66.9604C82.2745 63.6222 85.0986 59.607 87.0261 55.1587C88.9535 50.7104 89.9441 45.922 89.9375 41.0843C89.9375 31.296 85.9546 22.4196 79.4939 15.9612C77.9351 14.397 77.7739 11.7988 79.4401 10.155V10.1603ZM55 33.1306C52.8617 33.1306 50.811 33.9686 49.299 35.4602C47.7869 36.9518 46.9375 38.9749 46.9375 41.0843C46.9375 43.1938 47.7869 45.2168 49.299 46.7084C50.811 48.2 52.8617 49.038 55 49.038C57.1383 49.038 59.189 48.2 60.7011 46.7084C62.2131 45.2168 63.0625 43.1938 63.0625 41.0843C63.0625 38.9749 62.2131 36.9518 60.7011 35.4602C59.189 33.9686 57.1383 33.1306 55 33.1306Z" fill="white"/>
</svg>
