<svg width="110" height="83" viewBox="0 0 110 83" fill="none" xmlns="http://www.w3.org/2000/svg">
<path d="M45 54.1389L73 37.8889L45 21.6389V54.1389ZM39 74V66.7778H23C20.8 66.7778 18.916 66.07 17.348 64.6544C15.78 63.2389 14.9973 61.5393 15 59.5556V16.2222C15 14.2361 15.784 12.5353 17.352 11.1197C18.92 9.70417 20.8027 8.9976 23 9.00001H87C89.2 9.00001 91.084 9.70778 92.652 11.1233C94.22 12.5389 95.0027 14.2385 95 16.2222V59.5556C95 61.5417 94.216 63.2425 92.648 64.6581C91.08 66.0736 89.1973 66.7802 87 66.7778H71V74H39Z" fill="white"/>
</svg>
