<svg width="48" height="37" viewBox="0 0 48 37" fill="none" xmlns="http://www.w3.org/2000/svg">
<path d="M10.359 0.649865C10.1587 0.446644 9.92014 0.284662 9.65688 0.173173C9.39362 0.0616838 9.11085 0.00287324 8.82473 0.000102678C8.53861 -0.00266788 8.25474 0.0506551 7.98935 0.157025C7.72395 0.263395 7.48224 0.420728 7.27801 0.620032C4.96786 2.90403 3.13535 5.62033 1.88621 8.61221C0.637062 11.6041 -0.0039959 14.8123 1.87401e-05 18.0518C-0.00372812 21.4156 0.68778 24.7443 2.03163 27.8313C3.37547 30.9182 5.34297 33.6976 7.81201 35.9968C8.22757 36.3788 8.77649 36.5847 9.34223 36.5708C9.90796 36.5568 10.446 36.3242 10.842 35.9222C11.79 34.9795 11.673 33.4788 10.761 32.6107C8.77951 30.7327 7.20268 28.4737 6.12637 25.971C5.05005 23.4682 4.49672 20.7739 4.50002 18.0518C4.50002 12.5445 6.72301 7.55039 10.329 3.91665C11.199 3.03656 11.289 1.57471 10.359 0.649865ZM15.642 5.90954C15.2469 5.50525 14.7068 5.27321 14.1399 5.26427C13.5731 5.25532 13.0258 5.47019 12.618 5.86181C10.9949 7.45479 9.70648 9.35288 8.82784 11.4456C7.94919 13.5384 7.49783 15.784 7.50001 18.0518C7.49649 20.4497 8.00029 22.8215 8.97869 25.0132C9.95708 27.2048 11.3882 29.1672 13.179 30.7729C13.5908 31.1347 14.1267 31.325 14.6757 31.3044C15.2247 31.2839 15.7448 31.054 16.128 30.6625C17.112 29.684 16.929 28.1446 16.005 27.2794C14.7384 26.0954 13.7295 24.6656 13.0407 23.0785C12.3518 21.4913 11.9976 19.7805 12 18.0518C12 14.621 13.371 11.5063 15.6 9.22108C16.458 8.34397 16.599 6.85825 15.642 5.90954ZM32.358 5.90954C32.7531 5.50525 33.2932 5.27321 33.8601 5.26427C34.4269 5.25532 34.9742 5.47019 35.382 5.86181C37.0051 7.45479 38.2935 9.35288 39.1722 11.4456C40.0508 13.5384 40.5022 15.784 40.5 18.0518C40.5035 20.4497 39.9997 22.8215 39.0213 25.0132C38.0429 27.2048 36.6118 29.1672 34.821 30.7729C34.4093 31.1347 33.8733 31.325 33.3243 31.3044C32.7753 31.2839 32.2552 31.054 31.872 30.6625C30.888 29.684 31.071 28.1446 31.995 27.2794C33.2616 26.0954 34.2705 24.6656 34.9593 23.0785C35.6482 21.4913 36.0024 19.7805 36 18.0518C36 14.621 34.629 11.5063 32.4 9.22108C31.542 8.34397 31.401 6.85825 32.358 5.90954ZM37.641 0.65285C37.8413 0.449629 38.0799 0.287645 38.3431 0.176156C38.6064 0.064667 38.8892 0.0058571 39.1753 0.00308654C39.4614 0.000315977 39.7453 0.0536383 40.0107 0.160008C40.2761 0.266379 40.5178 0.423711 40.722 0.623015C43.0318 2.90666 44.8641 5.62248 46.1132 8.61381C47.3624 11.6052 48.0036 14.8128 48 18.0518C48.0037 21.4156 47.3122 24.7443 45.9684 27.8313C44.6245 30.9182 42.657 33.6976 40.188 35.9968C39.7724 36.3788 39.2235 36.5847 38.6578 36.5708C38.092 36.5568 37.554 36.3242 37.158 35.9222C36.21 34.9795 36.327 33.4788 37.242 32.6107C39.2229 30.7325 40.7992 28.4734 41.875 25.9706C42.9508 23.4678 43.5037 20.7737 43.5 18.0518C43.5 12.5445 41.277 7.55039 37.671 3.91665C36.801 3.03656 36.711 1.57471 37.641 0.649865V0.65285ZM24 13.5768C22.8065 13.5768 21.6619 14.0483 20.818 14.8875C19.9741 15.7267 19.5 16.865 19.5 18.0518C19.5 19.2387 19.9741 20.3769 20.818 21.2162C21.6619 22.0554 22.8065 22.5269 24 22.5269C25.1935 22.5269 26.3381 22.0554 27.182 21.2162C28.0259 20.3769 28.5 19.2387 28.5 18.0518C28.5 16.865 28.0259 15.7267 27.182 14.8875C26.3381 14.0483 25.1935 13.5768 24 13.5768Z" fill="white"/>
</svg>
