<svg width="40" height="37" viewBox="0 0 40 37" fill="none" xmlns="http://www.w3.org/2000/svg">
<path d="M15 25.7857L29 16.7857L15 7.78571V25.7857ZM12 36.7857V32.7857H4C2.9 32.7857 1.958 32.3937 1.174 31.6097C0.390003 30.8257 -0.00132994 29.8844 3.39559e-06 28.7857V4.78571C3.39559e-06 3.68571 0.392003 2.74371 1.176 1.95971C1.96 1.17571 2.90134 0.784376 4 0.785709H36C37.1 0.785709 38.042 1.17771 38.826 1.96171C39.61 2.74571 40.0013 3.68704 40 4.78571V28.7857C40 29.8857 39.608 30.8277 38.824 31.6117C38.04 32.3957 37.0987 32.787 36 32.7857H28V36.7857H12Z" fill="white"/>
</svg>
